<?xml version="1.0" encoding="UTF-8" standalone="no"?>
<!-- Generator: Gravit.io -->

<svg
   xmlns:dc="http://purl.org/dc/elements/1.1/"
   xmlns:cc="http://creativecommons.org/ns#"
   xmlns:rdf="http://www.w3.org/1999/02/22-rdf-syntax-ns#"
   xmlns:svg="http://www.w3.org/2000/svg"
   xmlns="http://www.w3.org/2000/svg"
   xmlns:sodipodi="http://sodipodi.sourceforge.net/DTD/sodipodi-0.dtd"
   xmlns:inkscape="http://www.inkscape.org/namespaces/inkscape"
   style="isolation:isolate"
   viewBox="0 0 16 16"
   width="16"
   height="16"
   version="1.1"
   id="svg12"
   sodipodi:docname="folder-locked-symbolic.svg"
   inkscape:version="0.92.3 (2405546, 2018-03-11)">
  <metadata
     id="metadata16">
    <rdf:RDF>
      <cc:Work
         rdf:about="">
        <dc:format>image/svg+xml</dc:format>
        <dc:type
           rdf:resource="http://purl.org/dc/dcmitype/StillImage" />
      </cc:Work>
    </rdf:RDF>
  </metadata>
  <sodipodi:namedview
     pagecolor="#ffffff"
     bordercolor="#666666"
     borderopacity="1"
     objecttolerance="10"
     gridtolerance="10"
     guidetolerance="10"
     inkscape:pageopacity="0"
     inkscape:pageshadow="2"
     inkscape:window-width="855"
     inkscape:window-height="480"
     id="namedview14"
     showgrid="false"
     inkscape:zoom="14.75"
     inkscape:cx="8"
     inkscape:cy="8"
     inkscape:window-x="58"
     inkscape:window-y="26"
     inkscape:window-maximized="0"
     inkscape:current-layer="svg12" />
  <defs
     id="defs5">
    <clipPath
       id="_clipPath_w66aAJemzE7s1QXY0P5RQqO9TktECmgR">
      <rect
         width="16"
         height="16"
         id="rect2" />
    </clipPath>
  </defs>
  <g
     clip-path="url(#_clipPath_w66aAJemzE7s1QXY0P5RQqO9TktECmgR)"
     id="g10"
     style="fill:#eeeeec">
    <rect
       width="16"
       height="16"
       style="fill:#eeeeec"
       fill-opacity="0"
       id="rect7" />
    <path
       d=" M 8 0.5 C 5.923 0.5 4.25 2.172 4.25 4.25 L 4.25 8 L 2.375 8 C 2.375 10.5 2.375 13 2.375 15.5 C 6.125 15.5 9.875 15.5 13.625 15.5 L 13.625 8 C 13 8 12.375 8 11.75 8 L 11.75 4.25 C 11.75 2.172 10.077 0.5 8 0.5 Z  M 8 1.438 C 9.558 1.438 10.813 2.901 10.813 4.719 L 10.813 8 L 5.188 8 L 5.188 4.719 C 5.188 2.901 6.442 1.438 8 1.438 Z "
       id="locked"
       class="ColorScheme-Text"
       fill="rgb(128,128,128)"
       style="fill:#eeeeec" />
  </g>
</svg>
