<?xml version="1.0" encoding="UTF-8" standalone="no"?>
<!-- Generator: Gravit.io -->

<svg
   xmlns:dc="http://purl.org/dc/elements/1.1/"
   xmlns:cc="http://creativecommons.org/ns#"
   xmlns:rdf="http://www.w3.org/1999/02/22-rdf-syntax-ns#"
   xmlns:svg="http://www.w3.org/2000/svg"
   xmlns="http://www.w3.org/2000/svg"
   xmlns:sodipodi="http://sodipodi.sourceforge.net/DTD/sodipodi-0.dtd"
   xmlns:inkscape="http://www.inkscape.org/namespaces/inkscape"
   style="isolation:isolate"
   viewBox="0 0 16 16"
   width="16"
   height="16"
   version="1.1"
   id="svg12"
   sodipodi:docname="folder-tar-symbolic.svg"
   inkscape:version="0.92.3 (2405546, 2018-03-11)">
  <metadata
     id="metadata16">
    <rdf:RDF>
      <cc:Work
         rdf:about="">
        <dc:format>image/svg+xml</dc:format>
        <dc:type
           rdf:resource="http://purl.org/dc/dcmitype/StillImage" />
      </cc:Work>
    </rdf:RDF>
  </metadata>
  <sodipodi:namedview
     pagecolor="#ffffff"
     bordercolor="#666666"
     borderopacity="1"
     objecttolerance="10"
     gridtolerance="10"
     guidetolerance="10"
     inkscape:pageopacity="0"
     inkscape:pageshadow="2"
     inkscape:window-width="855"
     inkscape:window-height="480"
     id="namedview14"
     showgrid="false"
     inkscape:zoom="14.75"
     inkscape:cx="8"
     inkscape:cy="8"
     inkscape:window-x="58"
     inkscape:window-y="26"
     inkscape:window-maximized="0"
     inkscape:current-layer="svg12" />
  <defs
     id="defs5">
    <clipPath
       id="_clipPath_2YQ9J57PyKAEjQv4bQjZ3ojo49bEjDrZ">
      <rect
         width="16"
         height="16"
         id="rect2" />
    </clipPath>
  </defs>
  <g
     clip-path="url(#_clipPath_2YQ9J57PyKAEjQv4bQjZ3ojo49bEjDrZ)"
     id="g10"
     style="fill:#eeeeec">
    <rect
       width="16"
       height="16"
       style="fill:#eeeeec"
       fill-opacity="0"
       id="rect7" />
    <path
       d=" M 8 0 L 8 1.231 L 9.231 1.231 L 9.231 0 L 8 0 L 8 0 Z  M 8 1.231 L 6.769 1.231 L 6.769 2.462 L 8 2.462 L 8 1.231 L 8 1.231 Z  M 8 2.462 L 8 3.692 L 9.231 3.692 L 9.231 2.462 L 8 2.462 L 8 2.462 Z  M 8 3.692 L 6.769 3.692 L 6.769 4.923 L 8 4.923 L 8 3.692 L 8 3.692 Z  M 8 4.923 L 8 6.154 C 8.679 6.154 9.231 5.538 9.231 4.923 L 8 4.923 L 8 4.923 Z  M 8 7.385 C 8.679 7.385 9.231 7.877 9.231 8.615 C 9.231 9.231 8.679 9.846 8 9.846 C 7.321 9.846 6.769 9.231 6.769 8.615 C 6.769 7.877 7.321 7.385 8 7.385 L 8 7.385 Z  M 8 11.077 C 8.679 11.077 9.231 11.569 9.231 12.308 L 9.231 13.538 C 9.231 14.154 8.679 14.769 8 14.769 C 7.321 14.769 6.769 14.154 6.769 13.538 L 6.769 12.308 C 6.769 11.569 7.321 11.077 8 11.077 L 8 11.077 Z  M 8 6.154 L 8 6.154 C 6.64 6.154 5.538 7.262 5.538 8.615 L 5.538 13.538 C 5.538 14.892 6.64 16 8 16 C 9.36 16 10.462 14.892 10.462 13.538 L 10.462 8.615 C 10.462 7.262 9.36 6.154 8 6.154 L 8 6.154 Z "
       fill-rule="evenodd"
       id="tar"
       fill="rgb(128,128,128)"
       style="fill:#eeeeec" />
  </g>
</svg>
