<?xml version="1.0" encoding="UTF-8" standalone="no"?>
<!-- Generator: Gravit.io -->

<svg
   xmlns:dc="http://purl.org/dc/elements/1.1/"
   xmlns:cc="http://creativecommons.org/ns#"
   xmlns:rdf="http://www.w3.org/1999/02/22-rdf-syntax-ns#"
   xmlns:svg="http://www.w3.org/2000/svg"
   xmlns="http://www.w3.org/2000/svg"
   xmlns:sodipodi="http://sodipodi.sourceforge.net/DTD/sodipodi-0.dtd"
   xmlns:inkscape="http://www.inkscape.org/namespaces/inkscape"
   style="isolation:isolate"
   viewBox="0 0 16 16"
   width="16"
   height="16"
   version="1.1"
   id="svg12"
   sodipodi:docname="folder-mega-symbolic.svg"
   inkscape:version="0.92.3 (2405546, 2018-03-11)">
  <metadata
     id="metadata16">
    <rdf:RDF>
      <cc:Work
         rdf:about="">
        <dc:format>image/svg+xml</dc:format>
        <dc:type
           rdf:resource="http://purl.org/dc/dcmitype/StillImage" />
      </cc:Work>
    </rdf:RDF>
  </metadata>
  <sodipodi:namedview
     pagecolor="#ffffff"
     bordercolor="#666666"
     borderopacity="1"
     objecttolerance="10"
     gridtolerance="10"
     guidetolerance="10"
     inkscape:pageopacity="0"
     inkscape:pageshadow="2"
     inkscape:window-width="855"
     inkscape:window-height="480"
     id="namedview14"
     showgrid="false"
     inkscape:zoom="14.75"
     inkscape:cx="8"
     inkscape:cy="8"
     inkscape:window-x="58"
     inkscape:window-y="26"
     inkscape:window-maximized="0"
     inkscape:current-layer="svg12" />
  <defs
     id="defs5">
    <clipPath
       id="_clipPath_XJyEuxEFHABFfK8HQLTRUKmmaQywor4G">
      <rect
         width="16"
         height="16"
         id="rect2" />
    </clipPath>
  </defs>
  <g
     clip-path="url(#_clipPath_XJyEuxEFHABFfK8HQLTRUKmmaQywor4G)"
     id="g10"
     style="fill:#eeeeec">
    <rect
       width="16"
       height="16"
       style="fill:#eeeeec"
       fill-opacity="0"
       id="rect7" />
    <path
       d=" M 8 0 C 3.582 0 0 3.582 0 8 C 0 12.418 3.582 16 8 16 C 12.418 16 16 12.418 16 8 C 16 3.582 12.418 0 8 0 Z  M 12.153 10.829 C 12.153 10.966 12.042 11.077 11.905 11.077 L 10.86 11.077 C 10.723 11.077 10.612 10.966 10.612 10.829 L 10.612 7.61 C 10.612 7.584 10.581 7.571 10.559 7.588 L 8.345 9.802 C 8.155 9.992 7.841 9.992 7.65 9.802 L 5.437 7.588 C 5.419 7.571 5.384 7.584 5.384 7.61 L 5.384 10.829 C 5.384 10.966 5.273 11.077 5.136 11.077 L 4.091 11.077 C 3.954 11.077 3.843 10.966 3.843 10.829 L 3.843 5.171 C 3.843 5.034 3.954 4.923 4.091 4.923 L 4.808 4.923 C 4.936 4.923 5.065 4.976 5.158 5.069 L 7.911 7.823 C 7.96 7.872 8.035 7.872 8.084 7.823 L 10.838 5.069 C 10.931 4.976 11.055 4.923 11.188 4.923 L 11.905 4.923 C 12.042 4.923 12.153 5.034 12.153 5.171 L 12.153 10.829 L 12.153 10.829 Z "
       id="mega"
       fill="rgb(128,128,128)"
       style="fill:#eeeeec" />
  </g>
</svg>
