<?xml version="1.0" encoding="UTF-8" standalone="no"?>
<!-- Generator: Gravit.io -->

<svg
   xmlns:dc="http://purl.org/dc/elements/1.1/"
   xmlns:cc="http://creativecommons.org/ns#"
   xmlns:rdf="http://www.w3.org/1999/02/22-rdf-syntax-ns#"
   xmlns:svg="http://www.w3.org/2000/svg"
   xmlns="http://www.w3.org/2000/svg"
   xmlns:sodipodi="http://sodipodi.sourceforge.net/DTD/sodipodi-0.dtd"
   xmlns:inkscape="http://www.inkscape.org/namespaces/inkscape"
   style="isolation:isolate"
   viewBox="0 0 16 16"
   width="16"
   height="16"
   version="1.1"
   id="svg12"
   sodipodi:docname="folder-steam-symbolic.svg"
   inkscape:version="0.92.3 (2405546, 2018-03-11)">
  <metadata
     id="metadata16">
    <rdf:RDF>
      <cc:Work
         rdf:about="">
        <dc:format>image/svg+xml</dc:format>
        <dc:type
           rdf:resource="http://purl.org/dc/dcmitype/StillImage" />
      </cc:Work>
    </rdf:RDF>
  </metadata>
  <sodipodi:namedview
     pagecolor="#ffffff"
     bordercolor="#666666"
     borderopacity="1"
     objecttolerance="10"
     gridtolerance="10"
     guidetolerance="10"
     inkscape:pageopacity="0"
     inkscape:pageshadow="2"
     inkscape:window-width="855"
     inkscape:window-height="480"
     id="namedview14"
     showgrid="false"
     inkscape:zoom="14.75"
     inkscape:cx="8"
     inkscape:cy="8"
     inkscape:window-x="58"
     inkscape:window-y="26"
     inkscape:window-maximized="0"
     inkscape:current-layer="svg12" />
  <defs
     id="defs5">
    <clipPath
       id="_clipPath_vzCCjcPLkW1ZKnGqd85Rh9mvLhoAq8dL">
      <rect
         width="16"
         height="16"
         id="rect2" />
    </clipPath>
  </defs>
  <g
     clip-path="url(#_clipPath_vzCCjcPLkW1ZKnGqd85Rh9mvLhoAq8dL)"
     id="g10"
     style="fill:#eeeeec">
    <rect
       width="16"
       height="16"
       style="fill:#eeeeec"
       fill-opacity="0"
       id="rect7" />
    <path
       d=" M 0 9.556 L 3.008 11.293 C 3.003 11.362 3 11.431 3 11.5 C 3 13.157 4.343 14.5 6 14.5 C 7.657 14.5 9 13.157 9 11.5 C 8.998 11.363 8.987 11.227 8.967 11.092 L 12.605 8.494 C 14.495 8.437 15.998 6.89 16 5 C 16 3.067 14.433 1.5 12.5 1.5 C 10.567 1.5 8.999 3.067 9 5.014 L 6.678 8.582 C 6.456 8.529 6.228 8.501 6 8.5 C 5.547 8.501 5.1 8.605 4.693 8.803 L 0 6.094 M 12.5 2.5 C 13.881 2.5 15 3.619 15 5 C 15 6.381 13.881 7.5 12.5 7.5 C 11.119 7.5 10 6.381 10 5 C 10 3.619 11.119 2.5 12.5 2.5 Z  M 12.5 3.5 C 11.672 3.5 11 4.172 11 5 C 11 5.828 11.672 6.5 12.5 6.5 C 13.328 6.5 14 5.828 14 5 C 14 4.172 13.328 3.5 12.5 3.5 Z  M 6 9.5 C 7.105 9.5 8 10.395 8 11.5 C 8 12.605 7.105 13.5 6 13.5 C 5.046 13.499 4.226 12.824 4.041 11.889 L 4.746 12.297 C 5.466 12.712 6.379 12.468 6.795 11.748 C 7.21 11.028 6.966 10.115 6.246 9.699 L 5.908 9.504 C 5.939 9.502 5.969 9.501 6 9.5 Z "
       id="steam"
       fill="rgb(128,128,128)"
       style="fill:#eeeeec" />
  </g>
</svg>
