<?xml version="1.0" encoding="UTF-8" standalone="no"?>
<!-- Generator: Gravit.io -->

<svg
   xmlns:dc="http://purl.org/dc/elements/1.1/"
   xmlns:cc="http://creativecommons.org/ns#"
   xmlns:rdf="http://www.w3.org/1999/02/22-rdf-syntax-ns#"
   xmlns:svg="http://www.w3.org/2000/svg"
   xmlns="http://www.w3.org/2000/svg"
   xmlns:sodipodi="http://sodipodi.sourceforge.net/DTD/sodipodi-0.dtd"
   xmlns:inkscape="http://www.inkscape.org/namespaces/inkscape"
   style="isolation:isolate"
   viewBox="0 0 16 16"
   width="16"
   height="16"
   version="1.1"
   id="svg12"
   sodipodi:docname="folder-important-symbolic.svg"
   inkscape:version="0.92.3 (2405546, 2018-03-11)">
  <metadata
     id="metadata16">
    <rdf:RDF>
      <cc:Work
         rdf:about="">
        <dc:format>image/svg+xml</dc:format>
        <dc:type
           rdf:resource="http://purl.org/dc/dcmitype/StillImage" />
      </cc:Work>
    </rdf:RDF>
  </metadata>
  <sodipodi:namedview
     pagecolor="#ffffff"
     bordercolor="#666666"
     borderopacity="1"
     objecttolerance="10"
     gridtolerance="10"
     guidetolerance="10"
     inkscape:pageopacity="0"
     inkscape:pageshadow="2"
     inkscape:window-width="855"
     inkscape:window-height="480"
     id="namedview14"
     showgrid="false"
     inkscape:zoom="14.75"
     inkscape:cx="8"
     inkscape:cy="8"
     inkscape:window-x="58"
     inkscape:window-y="26"
     inkscape:window-maximized="0"
     inkscape:current-layer="svg12" />
  <defs
     id="defs5">
    <clipPath
       id="_clipPath_HTNQzLIqVpBpm9dOUo6PA1OzmSmGhvl5">
      <rect
         width="16"
         height="16"
         id="rect2" />
    </clipPath>
  </defs>
  <g
     clip-path="url(#_clipPath_HTNQzLIqVpBpm9dOUo6PA1OzmSmGhvl5)"
     id="g10"
     style="fill:#eeeeec">
    <rect
       width="16"
       height="16"
       style="fill:#eeeeec"
       fill-opacity="0"
       id="rect7" />
    <path
       d=" M 8.553 10.3 L 7.242 10.3 L 6.829 6.012 L 6.829 2.653 L 8.966 2.653 L 8.966 6.012 L 8.553 10.3 L 8.553 10.3 L 8.553 10.3 Z  M 8 0 C 3.582 0 0 3.582 0 8 C 0 12.418 3.582 16 8 16 C 12.418 16 16 12.418 16 8 C 16 3.582 12.418 0 8 0 L 8 0 L 8 0 Z  M 8.885 12.922 L 8.885 12.922 L 8.885 12.922 Q 8.479 13.32 7.89 13.32 L 7.89 13.32 L 7.89 13.32 Q 7.301 13.32 6.918 12.93 L 6.918 12.93 L 6.918 12.93 Q 6.535 12.539 6.535 11.965 L 6.535 11.965 L 6.535 11.965 Q 6.535 11.39 6.918 10.992 L 6.918 10.992 L 6.918 10.992 Q 7.301 10.594 7.89 10.594 L 7.89 10.594 L 7.89 10.594 Q 8.479 10.594 8.885 10.992 L 8.885 10.992 L 8.885 10.992 Q 9.29 11.39 9.29 11.965 L 9.29 11.965 L 9.29 11.965 Q 9.29 12.524 8.885 12.922 Z "
       fill-rule="evenodd"
       id="important"
       fill="rgb(128,128,128)"
       style="fill:#eeeeec" />
  </g>
</svg>
