<?xml version="1.0" encoding="UTF-8" standalone="no"?>
<!-- Generator: Gravit.io -->

<svg
   xmlns:dc="http://purl.org/dc/elements/1.1/"
   xmlns:cc="http://creativecommons.org/ns#"
   xmlns:rdf="http://www.w3.org/1999/02/22-rdf-syntax-ns#"
   xmlns:svg="http://www.w3.org/2000/svg"
   xmlns="http://www.w3.org/2000/svg"
   xmlns:sodipodi="http://sodipodi.sourceforge.net/DTD/sodipodi-0.dtd"
   xmlns:inkscape="http://www.inkscape.org/namespaces/inkscape"
   style="isolation:isolate"
   viewBox="0 0 16 16"
   width="16"
   height="16"
   version="1.1"
   id="svg12"
   sodipodi:docname="folder-unlocked-symbolic.svg"
   inkscape:version="0.92.3 (2405546, 2018-03-11)">
  <metadata
     id="metadata16">
    <rdf:RDF>
      <cc:Work
         rdf:about="">
        <dc:format>image/svg+xml</dc:format>
        <dc:type
           rdf:resource="http://purl.org/dc/dcmitype/StillImage" />
      </cc:Work>
    </rdf:RDF>
  </metadata>
  <sodipodi:namedview
     pagecolor="#ffffff"
     bordercolor="#666666"
     borderopacity="1"
     objecttolerance="10"
     gridtolerance="10"
     guidetolerance="10"
     inkscape:pageopacity="0"
     inkscape:pageshadow="2"
     inkscape:window-width="855"
     inkscape:window-height="480"
     id="namedview14"
     showgrid="false"
     inkscape:zoom="14.75"
     inkscape:cx="8"
     inkscape:cy="8"
     inkscape:window-x="58"
     inkscape:window-y="26"
     inkscape:window-maximized="0"
     inkscape:current-layer="svg12" />
  <defs
     id="defs5">
    <clipPath
       id="_clipPath_KVNcNf0RUHU4KL0LtZZCzsvnhiLneBCu">
      <rect
         width="16"
         height="16"
         id="rect2" />
    </clipPath>
  </defs>
  <g
     clip-path="url(#_clipPath_KVNcNf0RUHU4KL0LtZZCzsvnhiLneBCu)"
     id="g10"
     style="fill:#eeeeec">
    <rect
       width="16"
       height="16"
       style="fill:#eeeeec"
       fill-opacity="0"
       id="rect7" />
    <path
       d=" M 8 0.5 C 10.264 0.5 12.091 2.273 12.091 4.591 L 10.727 4.591 C 10.727 3.091 9.514 1.864 8 1.864 C 6.486 1.864 5.273 3.091 5.273 4.591 L 5.273 7.318 L 8 7.318 L 10.727 7.318 L 12.091 7.318 L 12.773 7.318 C 13.15 7.318 13.455 7.622 13.455 8 L 13.455 14.818 C 13.455 15.196 13.15 15.5 12.773 15.5 L 3.227 15.5 C 2.85 15.5 2.545 15.196 2.545 14.818 L 2.545 8 C 2.545 7.622 2.85 7.318 3.227 7.318 L 3.909 7.318 L 3.909 4.591 C 3.909 2.273 5.736 0.5 8 0.5 Z "
       id="unlocked"
       fill="rgb(128,128,128)"
       style="fill:#eeeeec" />
  </g>
</svg>
