<?xml version="1.0" encoding="UTF-8" standalone="no"?>
<!-- Generator: Gravit.io -->

<svg
   xmlns:dc="http://purl.org/dc/elements/1.1/"
   xmlns:cc="http://creativecommons.org/ns#"
   xmlns:rdf="http://www.w3.org/1999/02/22-rdf-syntax-ns#"
   xmlns:svg="http://www.w3.org/2000/svg"
   xmlns="http://www.w3.org/2000/svg"
   xmlns:sodipodi="http://sodipodi.sourceforge.net/DTD/sodipodi-0.dtd"
   xmlns:inkscape="http://www.inkscape.org/namespaces/inkscape"
   style="isolation:isolate"
   viewBox="0 0 16 16"
   width="16"
   height="16"
   version="1.1"
   id="svg12"
   sodipodi:docname="folder-meocloud-symbolic.svg"
   inkscape:version="0.92.3 (2405546, 2018-03-11)">
  <metadata
     id="metadata16">
    <rdf:RDF>
      <cc:Work
         rdf:about="">
        <dc:format>image/svg+xml</dc:format>
        <dc:type
           rdf:resource="http://purl.org/dc/dcmitype/StillImage" />
      </cc:Work>
    </rdf:RDF>
  </metadata>
  <sodipodi:namedview
     pagecolor="#ffffff"
     bordercolor="#666666"
     borderopacity="1"
     objecttolerance="10"
     gridtolerance="10"
     guidetolerance="10"
     inkscape:pageopacity="0"
     inkscape:pageshadow="2"
     inkscape:window-width="855"
     inkscape:window-height="480"
     id="namedview14"
     showgrid="false"
     inkscape:zoom="14.75"
     inkscape:cx="8"
     inkscape:cy="8"
     inkscape:window-x="58"
     inkscape:window-y="26"
     inkscape:window-maximized="0"
     inkscape:current-layer="svg12" />
  <defs
     id="defs5">
    <clipPath
       id="_clipPath_GCGR6LVgUZUTZReG76nFyHGuDFIRViri">
      <rect
         width="16"
         height="16"
         id="rect2" />
    </clipPath>
  </defs>
  <g
     clip-path="url(#_clipPath_GCGR6LVgUZUTZReG76nFyHGuDFIRViri)"
     id="g10"
     style="fill:#eeeeec">
    <rect
       width="16"
       height="16"
       style="fill:#eeeeec"
       fill-opacity="0"
       id="rect7" />
    <path
       d=" M 9.599 2.667 C 7.995 2.667 6.529 3.569 5.802 4.997 C 5.484 4.867 5.143 4.8 4.799 4.799 C 3.465 4.799 2.339 5.787 2.161 7.109 C 0.87 7.553 0.001 8.767 0 10.133 C 0 11.9 1.433 13.333 3.201 13.333 L 12.799 13.333 C 14.567 13.333 16 11.9 16 10.133 C 15.999 8.775 15.141 7.566 13.859 7.117 C 13.863 7.056 13.865 6.993 13.867 6.932 C 13.867 4.576 11.955 2.667 9.599 2.667 Z  M 9.599 5.333 C 10.512 5.333 11.195 6.015 11.198 6.927 C 11.198 6.928 11.198 6.934 11.198 6.935 C 11.116 8.132 11.844 9.236 12.977 9.633 C 13.199 9.711 13.333 9.899 13.334 10.133 C 13.334 10.459 13.126 10.667 12.8 10.667 L 3.201 10.667 C 2.876 10.667 2.669 10.46 2.667 10.135 L 2.667 10.133 C 2.668 9.897 2.803 9.71 3.027 9.633 C 3.98 9.305 4.667 8.468 4.803 7.469 C 6.085 7.988 7.552 7.441 8.18 6.208 C 8.455 5.667 8.996 5.333 9.599 5.333 Z "
       id="meocloud"
       fill="rgb(128,128,128)"
       style="fill:#eeeeec" />
  </g>
</svg>
