<?xml version="1.0" encoding="UTF-8" standalone="no"?>
<svg
   xmlns:dc="http://purl.org/dc/elements/1.1/"
   xmlns:cc="http://creativecommons.org/ns#"
   xmlns:rdf="http://www.w3.org/1999/02/22-rdf-syntax-ns#"
   xmlns:svg="http://www.w3.org/2000/svg"
   xmlns="http://www.w3.org/2000/svg"
   xmlns:sodipodi="http://sodipodi.sourceforge.net/DTD/sodipodi-0.dtd"
   xmlns:inkscape="http://www.inkscape.org/namespaces/inkscape"
   height="16"
   width="16"
   version="1.1"
   id="svg14"
   sodipodi:docname="image-viewer-symbolic.svg"
   inkscape:version="0.92.3 (2405546, 2018-03-11)">
  <metadata
     id="metadata20">
    <rdf:RDF>
      <cc:Work
         rdf:about="">
        <dc:format>image/svg+xml</dc:format>
        <dc:type
           rdf:resource="http://purl.org/dc/dcmitype/StillImage" />
      </cc:Work>
    </rdf:RDF>
  </metadata>
  <defs
     id="defs18" />
  <sodipodi:namedview
     pagecolor="#ffffff"
     bordercolor="#666666"
     borderopacity="1"
     objecttolerance="10"
     gridtolerance="10"
     guidetolerance="10"
     inkscape:pageopacity="0"
     inkscape:pageshadow="2"
     inkscape:window-width="680"
     inkscape:window-height="480"
     id="namedview16"
     showgrid="false"
     inkscape:zoom="14.75"
     inkscape:cx="8"
     inkscape:cy="8"
     inkscape:window-x="58"
     inkscape:window-y="26"
     inkscape:window-maximized="0"
     inkscape:current-layer="svg14" />
  <g
     color="#000"
     transform="translate(-532 -200)"
     id="g12"
     style="fill:#eeeeec">
    <path
       d="M543.5 203c-.696 0-1.276.476-1.445 1.12 1 .18 1.919.61 2.683 1.226A1.5 1.5 0 0 0 543.5 203z"
       fill="#808080"
       overflow="visible"
       style="marker:none;fill:#eeeeec"
       id="path2" />
    <path
       d="M533 201v14h4.738a6.04 6.04 0 0 1-2.365-3H534v-10h12v4.738c.618.94.98 2.061.98 3.262.02 0 .02-1.254.02-9zm5.793 11c.543.6 1.322.98 2.207.98.885 0 1.664-.38 2.207-.98z"
       fill="#808080"
       overflow="visible"
       style="marker:none;fill:#eeeeec"
       id="path4" />
    <path
       d="M540.799 207.04a3.003 3.003 0 0 0-.758.148l-.541.812-.248-.414A2.956 2.956 0 0 0 538.02 210c0 .354.071.687.181 1H543zm-5.713 3.802L535 211h.111a5.913 5.913 0 0 1-.025-.158z"
       fill="#808080"
       overflow="visible"
       style="marker:none;fill:#eeeeec"
       id="path6" />
    <path
       d="M541 205c-2.755 0-5 2.245-5 5s2.245 5 5 5 5-2.245 5-5-2.245-5-5-5zm0 1.04a3.954 3.954 0 0 1 3.96 3.96 3.954 3.954 0 0 1-3.96 3.96 3.954 3.954 0 0 1-3.96-3.96 3.954 3.954 0 0 1 3.96-3.96z"
       fill="#808080"
       font-family="sans-serif"
       font-weight="400"
       overflow="visible"
       style="line-height:normal;font-variant-ligatures:normal;font-variant-position:normal;font-variant-caps:normal;font-variant-numeric:normal;font-variant-alternates:normal;font-feature-settings:normal;text-indent:0;text-align:start;text-decoration-line:none;text-decoration-style:solid;text-decoration-color:#000;text-transform:none;text-orientation:mixed;shape-padding:0;isolation:auto;mix-blend-mode:normal;fill:#eeeeec"
       white-space="normal"
       id="path8" />
    <path
       d="M544.354 212.646l-.708.708 2.5 2.5.708-.708z"
       fill="#808080"
       fill-rule="evenodd"
       font-family="sans-serif"
       font-weight="400"
       overflow="visible"
       style="line-height:normal;font-variant-ligatures:normal;font-variant-position:normal;font-variant-caps:normal;font-variant-numeric:normal;font-variant-alternates:normal;font-feature-settings:normal;text-indent:0;text-align:start;text-decoration-line:none;text-decoration-style:solid;text-decoration-color:#000;text-transform:none;text-orientation:mixed;shape-padding:0;isolation:auto;mix-blend-mode:normal;fill:#eeeeec"
       white-space="normal"
       id="path10" />
  </g>
</svg>
