<?xml version="1.0" encoding="UTF-8" standalone="no"?>
<svg
   xmlns:osb="http://www.openswatchbook.org/uri/2009/osb"
   xmlns:dc="http://purl.org/dc/elements/1.1/"
   xmlns:cc="http://creativecommons.org/ns#"
   xmlns:rdf="http://www.w3.org/1999/02/22-rdf-syntax-ns#"
   xmlns:svg="http://www.w3.org/2000/svg"
   xmlns="http://www.w3.org/2000/svg"
   xmlns:sodipodi="http://sodipodi.sourceforge.net/DTD/sodipodi-0.dtd"
   xmlns:inkscape="http://www.inkscape.org/namespaces/inkscape"
   height="16"
   id="svg7384"
   version="1.1"
   width="16"
   sodipodi:docname="notepad-symbolic.svg"
   inkscape:version="0.92.3 (2405546, 2018-03-11)">
  <sodipodi:namedview
     pagecolor="#ffffff"
     bordercolor="#666666"
     borderopacity="1"
     objecttolerance="10"
     gridtolerance="10"
     guidetolerance="10"
     inkscape:pageopacity="0"
     inkscape:pageshadow="2"
     inkscape:window-width="680"
     inkscape:window-height="480"
     id="namedview18"
     showgrid="false"
     inkscape:zoom="14.75"
     inkscape:cx="8"
     inkscape:cy="8"
     inkscape:window-x="58"
     inkscape:window-y="26"
     inkscape:window-maximized="0"
     inkscape:current-layer="svg7384" />
  <metadata
     id="metadata20854">
    <rdf:RDF>
      <cc:Work
         rdf:about="">
        <dc:title />
        <dc:format>image/svg+xml</dc:format>
        <dc:type
           rdf:resource="http://purl.org/dc/dcmitype/StillImage" />
      </cc:Work>
    </rdf:RDF>
  </metadata>
  <defs
     id="defs7386">
    <linearGradient
       id="linearGradient5606"
       osb:paint="solid">
      <stop
         id="stop5608"
         offset="0"
         style="stop-color:#808080;stop-opacity:1;" />
    </linearGradient>
    <linearGradient
       id="linearGradient4526"
       osb:paint="solid">
      <stop
         id="stop4528"
         offset="0"
         style="stop-color:#808080;stop-opacity:1;" />
    </linearGradient>
  </defs>
  <g
     id="layer9"
     label="status"
     style="display:inline;fill:#eeeeec"
     transform="translate(-553.0002,127)" />
  <g
     id="layer2"
     transform="translate(-312,-240)"
     style="fill:#eeeeec" />
  <g
     id="layer4"
     transform="translate(-312,-240)"
     style="fill:#eeeeec" />
  <g
     id="g1812"
     style="display:inline;fill:#eeeeec"
     transform="translate(-312,-240)" />
  <g
     id="g6217"
     transform="translate(-312,-240)"
     style="fill:#eeeeec" />
  <g
     id="layer3"
     style="display:inline;fill:#eeeeec"
     transform="translate(-312,-240)" />
  <g
     id="g1833"
     style="display:inline;fill:#eeeeec"
     transform="translate(-312,-240)">
    <path
       d="m 312,240 v 16 h 9 0.75 L 326,251.75 V 251 246.2793 l -1,0.98632 V 251 h -4 v 4 h -8 v -14 h 11.25391 l -1.97266,2 H 315 v 1 h 6.29492 l -0.98633,1 H 315 v 1 h 4.32227 l -0.98633,1 H 315 v 1 h 2.35156 l -0.98633,1 H 315 v 1 h 0.61914 c -0.10152,0.18271 -0.14671,0.24298 -0.31641,0.58789 -0.31382,0.63789 -0.70008,1.50961 -1.01171,2.49219 L 314,254 l 0.91992,-0.29102 c 0.9834,-0.31169 1.85436,-0.69795 2.49219,-1.01171 0.63783,-0.31377 0.98702,-0.52071 1.08789,-0.58399 l 0.0449,-0.0293 9.45508,-9.32226 -2,-2 V 240.24219 240 h -0.76172 z m 4.89062,9.89062 1.21876,1.21876 -0.17774,0.17578 c 0.007,-0.005 -0.37854,0.22717 -0.96094,0.51367 -0.2142,0.10537 -0.53547,0.22256 -0.83398,0.33789 l -0.27344,-0.27344 c 0.11532,-0.29849 0.23249,-0.61973 0.33789,-0.83398 0.28659,-0.58252 0.51751,-0.96589 0.51367,-0.96094 z"
       id="path1901"
       style="color:#808080;display:inline;overflow:visible;visibility:visible;fill:#eeeeec;fill-opacity:1;fill-rule:nonzero;stroke:none;stroke-width:4;marker:none;enable-background:accumulate" />
  </g>
  <g
     id="layer1"
     transform="translate(-312,-240)"
     style="fill:#eeeeec" />
</svg>
