<?xml version="1.0" encoding="UTF-8" standalone="no"?>
<svg
   xmlns:dc="http://purl.org/dc/elements/1.1/"
   xmlns:cc="http://creativecommons.org/ns#"
   xmlns:rdf="http://www.w3.org/1999/02/22-rdf-syntax-ns#"
   xmlns:svg="http://www.w3.org/2000/svg"
   xmlns="http://www.w3.org/2000/svg"
   xmlns:sodipodi="http://sodipodi.sourceforge.net/DTD/sodipodi-0.dtd"
   xmlns:inkscape="http://www.inkscape.org/namespaces/inkscape"
   height="16"
   width="16"
   version="1.1"
   id="svg6"
   sodipodi:docname="calendar.svg"
   inkscape:version="0.92.3 (2405546, 2018-03-11)">
  <metadata
     id="metadata12">
    <rdf:RDF>
      <cc:Work
         rdf:about="">
        <dc:format>image/svg+xml</dc:format>
        <dc:type
           rdf:resource="http://purl.org/dc/dcmitype/StillImage" />
      </cc:Work>
    </rdf:RDF>
  </metadata>
  <defs
     id="defs10" />
  <sodipodi:namedview
     pagecolor="#ffffff"
     bordercolor="#666666"
     borderopacity="1"
     objecttolerance="10"
     gridtolerance="10"
     guidetolerance="10"
     inkscape:pageopacity="0"
     inkscape:pageshadow="2"
     inkscape:window-width="680"
     inkscape:window-height="480"
     id="namedview8"
     showgrid="false"
     inkscape:zoom="14.75"
     inkscape:cx="8"
     inkscape:cy="8"
     inkscape:window-x="58"
     inkscape:window-y="26"
     inkscape:window-maximized="0"
     inkscape:current-layer="svg6" />
  <g
     color="#000"
     transform="translate(-352 -160)"
     id="g4"
     style="fill:#eeeeec">
    <path
       d="M358 160l-1 .25v.75h1zm0 1v1h-1v-1c-1.258.015-2.179-.03-2.932.385-.376.207-.675.56-.84.998-.164.438-.222.96-.222 1.617v8c0 .658.058 1.179.223 1.617.164.439.463.789.84.996.752.416 1.673.372 2.931.387h3.004v-1H357c-1.26-.015-2.087-.06-2.453-.262-.183-.1-.29-.212-.387-.472-.098-.26-.16-.674-.16-1.266v-5c0-.592.063-1.006.16-1.266.098-.26.204-.371.387-.472.367-.203 1.195-.247 2.459-.262H363c1.26.015 2.087.06 2.453.262.184.1.29.212.387.472.098.26.16 1.266.16 1.266v2h.006v3c0 .592-.062 1.006-.16 1.266s-.204.371-.387.472c-.366.202-1.193.247-2.453.262h-3v1h3c1.258-.015 2.179.029 2.931-.387.377-.207.676-.557.84-.996.165-.438.223-.96.223-1.617v-8c0-.658-.06-1.179-.225-1.617a1.88 1.88 0 0 0-.837-.998c-.753-.416-1.674-.37-2.932-.385v1h-1v-1H363v-1l-1 .25v.75z"
       fill="#808080"
       font-family="sans-serif"
       font-weight="400"
       overflow="visible"
       style="line-height:normal;text-indent:0;text-align:start;text-decoration-line:none;text-decoration-style:solid;text-decoration-color:#000;text-transform:none;isolation:auto;mix-blend-mode:normal;marker:none;fill:#eeeeec"
       white-space="normal"
       id="path2" />
  </g>
</svg>
