<?xml version="1.0" encoding="UTF-8" standalone="no"?>
<!-- Generator: Gravit.io -->

<svg
   xmlns:dc="http://purl.org/dc/elements/1.1/"
   xmlns:cc="http://creativecommons.org/ns#"
   xmlns:rdf="http://www.w3.org/1999/02/22-rdf-syntax-ns#"
   xmlns:svg="http://www.w3.org/2000/svg"
   xmlns="http://www.w3.org/2000/svg"
   xmlns:sodipodi="http://sodipodi.sourceforge.net/DTD/sodipodi-0.dtd"
   xmlns:inkscape="http://www.inkscape.org/namespaces/inkscape"
   style="isolation:isolate"
   viewBox="0 0 16 16"
   width="16"
   height="16"
   version="1.1"
   id="svg12"
   sodipodi:docname="folder-gnome.svg"
   inkscape:version="0.92.3 (2405546, 2018-03-11)">
  <metadata
     id="metadata16">
    <rdf:RDF>
      <cc:Work
         rdf:about="">
        <dc:format>image/svg+xml</dc:format>
        <dc:type
           rdf:resource="http://purl.org/dc/dcmitype/StillImage" />
      </cc:Work>
    </rdf:RDF>
  </metadata>
  <sodipodi:namedview
     pagecolor="#ffffff"
     bordercolor="#666666"
     borderopacity="1"
     objecttolerance="10"
     gridtolerance="10"
     guidetolerance="10"
     inkscape:pageopacity="0"
     inkscape:pageshadow="2"
     inkscape:window-width="855"
     inkscape:window-height="480"
     id="namedview14"
     showgrid="false"
     inkscape:zoom="14.75"
     inkscape:cx="8"
     inkscape:cy="8"
     inkscape:window-x="58"
     inkscape:window-y="26"
     inkscape:window-maximized="0"
     inkscape:current-layer="svg12" />
  <defs
     id="defs5">
    <clipPath
       id="_clipPath_Af9XBBME5uRcJm6uuvmZrWxGVfytCiqq">
      <rect
         width="16"
         height="16"
         id="rect2" />
    </clipPath>
  </defs>
  <g
     clip-path="url(#_clipPath_Af9XBBME5uRcJm6uuvmZrWxGVfytCiqq)"
     id="g10"
     style="fill:#eeeeec">
    <rect
       width="16"
       height="16"
       style="fill:#eeeeec"
       fill-opacity="0"
       id="rect7" />
    <path
       d=" M 12.447 0.5 C 9.59 0.5 9.055 4.952 10.662 4.952 C 12.268 4.952 15.304 0.5 12.447 0.5 Z  M 8.047 1.185 C 8.002 1.185 7.954 1.189 7.903 1.195 C 6.283 1.404 6.853 4.214 7.715 4.267 C 8.548 4.318 9.461 1.19 8.045 1.185 L 8.047 1.185 Z  M 5.24 2.222 C 5.141 2.216 5.031 2.235 4.909 2.286 C 3.608 2.834 4.712 5.096 5.44 4.945 C 6.101 4.807 6.196 2.286 5.24 2.222 Z  M 3.116 4.072 C 3.003 4.068 2.881 4.109 2.75 4.208 C 1.709 5.005 3.101 6.932 3.714 6.633 C 4.25 6.371 3.908 4.101 3.116 4.072 L 3.116 4.072 Z  M 9.268 5.91 C 7.011 5.871 4.034 7.045 3.526 9.405 C 2.976 11.958 5.79 15.5 8.724 15.5 C 10.168 15.5 11.834 14.147 12.145 12.432 C 12.383 11.126 9.345 11.65 9.453 12.514 C 9.585 13.551 8.721 14.063 7.876 13.395 C 5.183 11.268 12.334 10.206 11.862 7.3 C 11.715 6.395 10.62 5.935 9.267 5.91 L 9.268 5.91 Z "
       id="gnome"
       fill="rgb(128,128,128)"
       style="fill:#eeeeec" />
  </g>
</svg>
