<?xml version="1.0" encoding="UTF-8" standalone="no"?>
<!-- Generator: Gravit.io -->

<svg
   xmlns:dc="http://purl.org/dc/elements/1.1/"
   xmlns:cc="http://creativecommons.org/ns#"
   xmlns:rdf="http://www.w3.org/1999/02/22-rdf-syntax-ns#"
   xmlns:svg="http://www.w3.org/2000/svg"
   xmlns="http://www.w3.org/2000/svg"
   xmlns:sodipodi="http://sodipodi.sourceforge.net/DTD/sodipodi-0.dtd"
   xmlns:inkscape="http://www.inkscape.org/namespaces/inkscape"
   style="isolation:isolate"
   viewBox="0 0 16 16"
   width="16"
   height="16"
   version="1.1"
   id="svg12"
   sodipodi:docname="folder-vbox.svg"
   inkscape:version="0.92.3 (2405546, 2018-03-11)">
  <metadata
     id="metadata16">
    <rdf:RDF>
      <cc:Work
         rdf:about="">
        <dc:format>image/svg+xml</dc:format>
        <dc:type
           rdf:resource="http://purl.org/dc/dcmitype/StillImage" />
      </cc:Work>
    </rdf:RDF>
  </metadata>
  <sodipodi:namedview
     pagecolor="#ffffff"
     bordercolor="#666666"
     borderopacity="1"
     objecttolerance="10"
     gridtolerance="10"
     guidetolerance="10"
     inkscape:pageopacity="0"
     inkscape:pageshadow="2"
     inkscape:window-width="855"
     inkscape:window-height="480"
     id="namedview14"
     showgrid="false"
     inkscape:zoom="14.75"
     inkscape:cx="8"
     inkscape:cy="8"
     inkscape:window-x="58"
     inkscape:window-y="26"
     inkscape:window-maximized="0"
     inkscape:current-layer="svg12" />
  <defs
     id="defs5">
    <clipPath
       id="_clipPath_tjUxWGaub9RUbUSzyCqbHoUESR8XWBvC">
      <rect
         width="16"
         height="16"
         id="rect2" />
    </clipPath>
  </defs>
  <g
     clip-path="url(#_clipPath_tjUxWGaub9RUbUSzyCqbHoUESR8XWBvC)"
     id="g10"
     style="fill:#eeeeec">
    <rect
       width="16"
       height="16"
       style="fill:#eeeeec"
       fill-opacity="0"
       id="rect7" />
    <path
       d=" M 4.659 2.667 C 4.368 2.671 4.113 2.863 4.029 3.141 L 2.172 9.334 L 0.667 9.334 L 0 9.334 L 0 10.667 L 0.667 10.667 L 2.667 10.667 C 2.961 10.667 3.22 10.475 3.305 10.194 L 4.656 5.688 L 6.734 12.852 C 6.815 13.129 7.064 13.322 7.351 13.332 C 7.639 13.342 7.9 13.167 8 12.897 L 9.427 9.011 L 10.07 10.298 C 10.183 10.524 10.414 10.667 10.667 10.667 L 15.333 10.667 L 16 10.667 L 16 9.334 L 15.333 9.334 L 11.078 9.334 L 9.93 7.037 C 9.811 6.8 9.562 6.656 9.297 6.67 C 9.032 6.685 8.8 6.856 8.708 7.105 L 7.448 10.532 L 5.307 3.149 C 5.224 2.861 4.959 2.664 4.659 2.667 L 4.659 2.667 Z "
       id="vbox"
       fill="rgb(128,128,128)"
       style="fill:#eeeeec" />
  </g>
</svg>
