<?xml version="1.0" encoding="UTF-8" standalone="no"?>
<!-- Generator: Gravit.io -->

<svg
   xmlns:dc="http://purl.org/dc/elements/1.1/"
   xmlns:cc="http://creativecommons.org/ns#"
   xmlns:rdf="http://www.w3.org/1999/02/22-rdf-syntax-ns#"
   xmlns:svg="http://www.w3.org/2000/svg"
   xmlns="http://www.w3.org/2000/svg"
   xmlns:sodipodi="http://sodipodi.sourceforge.net/DTD/sodipodi-0.dtd"
   xmlns:inkscape="http://www.inkscape.org/namespaces/inkscape"
   style="isolation:isolate"
   viewBox="0 0 16 16"
   width="16"
   height="16"
   version="1.1"
   id="svg12"
   sodipodi:docname="folder-yandex-disk.svg"
   inkscape:version="0.92.3 (2405546, 2018-03-11)">
  <metadata
     id="metadata16">
    <rdf:RDF>
      <cc:Work
         rdf:about="">
        <dc:format>image/svg+xml</dc:format>
        <dc:type
           rdf:resource="http://purl.org/dc/dcmitype/StillImage" />
      </cc:Work>
    </rdf:RDF>
  </metadata>
  <sodipodi:namedview
     pagecolor="#ffffff"
     bordercolor="#666666"
     borderopacity="1"
     objecttolerance="10"
     gridtolerance="10"
     guidetolerance="10"
     inkscape:pageopacity="0"
     inkscape:pageshadow="2"
     inkscape:window-width="855"
     inkscape:window-height="480"
     id="namedview14"
     showgrid="false"
     inkscape:zoom="14.75"
     inkscape:cx="8"
     inkscape:cy="8"
     inkscape:window-x="58"
     inkscape:window-y="26"
     inkscape:window-maximized="0"
     inkscape:current-layer="svg12" />
  <defs
     id="defs5">
    <clipPath
       id="_clipPath_KEUimXsdhGHR4YxA85UnS2JJ9Z9Glvi1">
      <rect
         width="16"
         height="16"
         id="rect2" />
    </clipPath>
  </defs>
  <g
     clip-path="url(#_clipPath_KEUimXsdhGHR4YxA85UnS2JJ9Z9Glvi1)"
     id="g10"
     style="fill:#eeeeec">
    <rect
       width="16"
       height="16"
       style="fill:#eeeeec"
       fill-opacity="0"
       id="rect7" />
    <path
       d=" M 7.149 2.375 C 4.502 2.375 4.444 4.142 3.679 5.331 C 4.616 4.889 5.661 4.512 6.789 4.221 C 7.814 3.956 8.848 3.781 9.852 3.702 C 9.215 3.184 8.771 2.375 7.149 2.375 Z  M 10.782 4.906 C 9.615 4.928 8.349 5.108 7.101 5.431 C 2.989 6.492 0.058 8.803 0.555 10.591 C 0.841 11.612 2.222 12.537 4.278 12.659 C 4.277 12.652 4.275 12.645 4.274 12.638 C 4.274 12.637 4.274 12.636 4.274 12.635 C 4.272 12.617 4.266 12.601 4.263 12.583 C 4.143 11.492 4.767 10.646 5.484 10.049 C 6.201 9.452 7.121 9.021 8.163 8.789 C 8.668 8.676 9.178 8.619 9.679 8.625 L 9.68 8.625 C 10.431 8.634 11.125 8.774 11.736 9.121 C 12.239 9.406 12.7 9.902 12.896 10.516 C 14.773 9.369 15.743 7.824 15.448 6.745 C 15.119 5.561 13.33 4.856 10.782 4.906 Z  M 9.664 9.875 C 9.269 9.87 8.852 9.916 8.434 10.009 C 6.712 10.393 5.4 11.484 5.506 12.446 C 5.612 13.408 7.095 13.875 8.818 13.491 C 10.541 13.106 11.85 12.016 11.744 11.054 C 11.667 10.355 10.848 9.89 9.664 9.875 Z "
       id="yandex-disk"
       fill="rgb(128,128,128)"
       style="fill:#eeeeec" />
  </g>
</svg>
