<?xml version="1.0" encoding="UTF-8" standalone="no"?>
<!-- Generator: Gravit.io -->

<svg
   xmlns:dc="http://purl.org/dc/elements/1.1/"
   xmlns:cc="http://creativecommons.org/ns#"
   xmlns:rdf="http://www.w3.org/1999/02/22-rdf-syntax-ns#"
   xmlns:svg="http://www.w3.org/2000/svg"
   xmlns="http://www.w3.org/2000/svg"
   xmlns:sodipodi="http://sodipodi.sourceforge.net/DTD/sodipodi-0.dtd"
   xmlns:inkscape="http://www.inkscape.org/namespaces/inkscape"
   style="isolation:isolate"
   viewBox="0 0 16 16"
   width="16"
   height="16"
   version="1.1"
   id="svg13"
   sodipodi:docname="star.svg"
   inkscape:version="0.92.3 (2405546, 2018-03-11)">
  <metadata
     id="metadata17">
    <rdf:RDF>
      <cc:Work
         rdf:about="">
        <dc:format>image/svg+xml</dc:format>
        <dc:type
           rdf:resource="http://purl.org/dc/dcmitype/StillImage" />
      </cc:Work>
    </rdf:RDF>
  </metadata>
  <sodipodi:namedview
     pagecolor="#ffffff"
     bordercolor="#666666"
     borderopacity="1"
     objecttolerance="10"
     gridtolerance="10"
     guidetolerance="10"
     inkscape:pageopacity="0"
     inkscape:pageshadow="2"
     inkscape:window-width="680"
     inkscape:window-height="480"
     id="namedview15"
     showgrid="false"
     inkscape:zoom="14.75"
     inkscape:cx="8"
     inkscape:cy="8"
     inkscape:window-x="58"
     inkscape:window-y="26"
     inkscape:window-maximized="0"
     inkscape:current-layer="svg13" />
  <defs
     id="defs5">
    <clipPath
       id="_clipPath_qb3BNswUKdjBt3Hnzz2kDSprOzZ9LdtE">
      <rect
         width="16"
         height="16"
         id="rect2" />
    </clipPath>
  </defs>
  <g
     clip-path="url(#_clipPath_qb3BNswUKdjBt3Hnzz2kDSprOzZ9LdtE)"
     id="g11"
     style="fill:#eeeeec">
    <rect
       x="17.094"
       y="-0.094"
       width="4.625"
       height="3.594"
       transform="matrix(1,0,0,1,0,0)"
       fill="#808080"
       id="rect7"
       style="fill:#eeeeec" />
    <path
       d=" M 8 15 C 7.28 15 6.169 10.848 5.66 10.34 C 5.151 9.831 1 8.72 1 8 C 1 7.28 5.151 6.169 5.66 5.66 C 6.169 5.151 7.28 1 8 1 C 8.72 1 9.831 5.151 10.34 5.66 C 10.849 6.169 15 7.28 15 8 C 15 8.72 10.849 9.831 10.34 10.34 C 9.831 10.849 8.72 15 8 15 L 8 15 Z "
       fill="#808080"
       id="path9"
       style="fill:#eeeeec" />
  </g>
</svg>
