<?xml version="1.0" encoding="UTF-8" standalone="no"?>
<svg
   xmlns:osb="http://www.openswatchbook.org/uri/2009/osb"
   xmlns:dc="http://purl.org/dc/elements/1.1/"
   xmlns:cc="http://creativecommons.org/ns#"
   xmlns:rdf="http://www.w3.org/1999/02/22-rdf-syntax-ns#"
   xmlns:svg="http://www.w3.org/2000/svg"
   xmlns="http://www.w3.org/2000/svg"
   xmlns:sodipodi="http://sodipodi.sourceforge.net/DTD/sodipodi-0.dtd"
   xmlns:inkscape="http://www.inkscape.org/namespaces/inkscape"
   height="16.000015"
   id="svg7384"
   version="1.1"
   width="16"
   sodipodi:docname="bluetooth.svg"
   inkscape:version="0.92.3 (2405546, 2018-03-11)">
  <sodipodi:namedview
     pagecolor="#ffffff"
     bordercolor="#666666"
     borderopacity="1"
     objecttolerance="10"
     gridtolerance="10"
     guidetolerance="10"
     inkscape:pageopacity="0"
     inkscape:pageshadow="2"
     inkscape:window-width="680"
     inkscape:window-height="480"
     id="namedview15"
     showgrid="false"
     inkscape:zoom="14.749986"
     inkscape:cx="8"
     inkscape:cy="8.0000076"
     inkscape:window-x="58"
     inkscape:window-y="26"
     inkscape:window-maximized="0"
     inkscape:current-layer="svg7384" />
  <metadata
     id="metadata20854">
    <rdf:RDF>
      <cc:Work
         rdf:about="">
        <dc:title />
        <dc:format>image/svg+xml</dc:format>
        <dc:type
           rdf:resource="http://purl.org/dc/dcmitype/StillImage" />
      </cc:Work>
    </rdf:RDF>
  </metadata>
  <defs
     id="defs7386">
    <linearGradient
       id="linearGradient5606"
       osb:paint="solid">
      <stop
         id="stop5608"
         offset="0"
         style="stop-color:#808080;stop-opacity:1;" />
    </linearGradient>
    <linearGradient
       id="linearGradient4526"
       osb:paint="solid">
      <stop
         id="stop4528"
         offset="0"
         style="stop-color:#808080;stop-opacity:1;" />
    </linearGradient>
  </defs>
  <g
     id="layer9"
     label="status"
     style="display:inline;fill:#eeeeec"
     transform="translate(-693.00023,227)" />
  <g
     id="layer2"
     transform="translate(-452.00003,-140)"
     style="fill:#eeeeec" />
  <g
     id="layer3"
     style="display:inline;fill:#eeeeec"
     transform="translate(-452.00003,-140)" />
  <g
     id="g6217"
     transform="translate(-452.00003,-140)"
     style="fill:#eeeeec">
    <path
       d="m 457.6621,140 c -0.83879,0.01 -1.45125,-0.0191 -1.95313,0.25781 -0.25093,0.13845 -0.45077,0.37165 -0.56054,0.66406 -0.10977,0.29242 -0.14844,0.63974 -0.14844,1.07813 v 12 c 0,0.43839 0.0387,0.78571 0.14844,1.07812 0.10977,0.29242 0.30961,0.52757 0.56054,0.66602 0.50188,0.2769 1.11434,0.24616 1.95313,0.25586 h 0.002 5.67188 0.002 c 0.83879,-0.01 1.45125,0.021 1.95312,-0.25586 0.25094,-0.13845 0.45078,-0.3736 0.56055,-0.66602 0.10967,-0.29241 0.14834,-0.63973 0.14834,-1.07812 v -12 c 0,-0.43839 -0.0387,-0.78571 -0.14844,-1.07813 -0.10976,-0.29241 -0.30961,-0.52561 -0.56054,-0.66406 -0.50188,-0.2769 -1.11434,-0.24811 -1.95313,-0.25781 h -0.002 -5.67187 z m 2.33789,1.30273 4.24023,4.23829 -2.93945,2.46875 2.93945,2.46875 -4.24023,4.23828 v -5.61328 l -2.42773,2.03906 -0.64454,-0.76563 2.81836,-2.36718 -2.81836,-2.36719 0.64454,-0.76563 2.42773,2.03907 z m 1,2.41407 v 3.24023 l 1.75977,-1.48047 z m 0,5.3457 v 3.24023 l 1.75977,-1.75976 z"
       id="path8744"
       style="color:#808080;font-style:normal;font-variant:normal;font-weight:normal;font-stretch:normal;font-size:medium;line-height:normal;font-family:sans-serif;text-indent:0;text-align:start;text-decoration:none;text-decoration-line:none;text-decoration-style:solid;text-decoration-color:#808080;letter-spacing:normal;word-spacing:normal;text-transform:none;writing-mode:lr-tb;direction:ltr;baseline-shift:baseline;text-anchor:start;white-space:normal;shape-padding:0;clip-rule:nonzero;display:inline;overflow:visible;visibility:visible;opacity:1;isolation:auto;mix-blend-mode:normal;color-interpolation:sRGB;color-interpolation-filters:linearRGB;solid-color:#808080;solid-opacity:1;fill:#eeeeec;fill-opacity:1;fill-rule:nonzero;stroke:none;stroke-width:4.00000048;stroke-linecap:butt;stroke-linejoin:miter;stroke-miterlimit:4;stroke-dasharray:none;stroke-dashoffset:0;stroke-opacity:1;marker:none;color-rendering:auto;image-rendering:auto;shape-rendering:auto;text-rendering:auto;enable-background:accumulate" />
  </g>
  <g
     id="layer1"
     transform="translate(-452.00003,-140)"
     style="fill:#eeeeec" />
</svg>
