<?xml version="1.0" encoding="UTF-8" standalone="no"?>
<!-- Generator: Gravit.io -->

<svg
   xmlns:dc="http://purl.org/dc/elements/1.1/"
   xmlns:cc="http://creativecommons.org/ns#"
   xmlns:rdf="http://www.w3.org/1999/02/22-rdf-syntax-ns#"
   xmlns:svg="http://www.w3.org/2000/svg"
   xmlns="http://www.w3.org/2000/svg"
   xmlns:sodipodi="http://sodipodi.sourceforge.net/DTD/sodipodi-0.dtd"
   xmlns:inkscape="http://www.inkscape.org/namespaces/inkscape"
   style="isolation:isolate"
   viewBox="0 0 16 16"
   width="16"
   height="16"
   version="1.1"
   id="svg13"
   sodipodi:docname="Amazon-www.amazon.co.uk-symbolic.svg"
   inkscape:version="0.92.3 (2405546, 2018-03-11)">
  <metadata
     id="metadata17">
    <rdf:RDF>
      <cc:Work
         rdf:about="">
        <dc:format>image/svg+xml</dc:format>
        <dc:type
           rdf:resource="http://purl.org/dc/dcmitype/StillImage" />
      </cc:Work>
    </rdf:RDF>
  </metadata>
  <sodipodi:namedview
     pagecolor="#ffffff"
     bordercolor="#666666"
     borderopacity="1"
     objecttolerance="10"
     gridtolerance="10"
     guidetolerance="10"
     inkscape:pageopacity="0"
     inkscape:pageshadow="2"
     inkscape:window-width="680"
     inkscape:window-height="480"
     id="namedview15"
     showgrid="false"
     inkscape:zoom="14.75"
     inkscape:cx="8"
     inkscape:cy="8"
     inkscape:window-x="58"
     inkscape:window-y="26"
     inkscape:window-maximized="0"
     inkscape:current-layer="svg13" />
  <defs
     id="defs5">
    <clipPath
       id="_clipPath_atanLm1Bryh3JJx8Kz48JZ3GFXuVrcRJ">
      <rect
         width="16"
         height="16"
         id="rect2" />
    </clipPath>
  </defs>
  <g
     clip-path="url(#_clipPath_atanLm1Bryh3JJx8Kz48JZ3GFXuVrcRJ)"
     id="g11"
     style="fill:#eeeeec">
    <rect
       x="16.344"
       y="0.344"
       width="4.625"
       height="3.594"
       transform="matrix(1,0,0,1,0,0)"
       fill="#808080"
       id="rect7"
       style="fill:#eeeeec" />
    <path
       d=" M 9.462 8.881 C 9.462 9.904 9.487 10.756 8.97 11.665 C 8.553 12.404 7.889 12.858 7.152 12.858 C 6.144 12.858 5.554 12.091 5.554 10.955 C 5.554 8.719 7.562 8.313 9.462 8.313 L 9.462 8.881 Z  M 12.112 15.28 C 11.937 15.436 11.686 15.447 11.49 15.341 C 10.617 14.617 10.461 14.282 9.984 13.592 C 8.542 15.06 7.521 15.5 5.653 15.5 C 3.44 15.5 1.72 14.137 1.72 11.409 C 1.72 9.279 2.875 7.83 4.522 7.119 C 5.947 6.494 7.939 6.381 9.462 6.21 L 9.462 5.869 C 9.462 5.245 9.511 4.506 9.143 3.966 C 8.823 3.483 8.209 3.284 7.668 3.284 C 6.666 3.284 5.775 3.797 5.556 4.86 C 5.511 5.097 5.338 5.331 5.1 5.343 L 2.553 5.067 C 2.338 5.019 2.099 4.847 2.161 4.519 C 2.746 1.433 5.536 0.5 8.037 0.5 C 9.315 0.5 10.986 0.841 11.994 1.807 C 13.272 3 13.149 4.591 13.149 6.324 L 13.149 10.413 C 13.149 11.643 13.66 12.183 14.14 12.846 C 14.308 13.084 14.346 13.369 14.132 13.543 C 13.595 13.992 12.641 14.82 12.116 15.286 L 12.112 15.28 Z "
       fill-rule="evenodd"
       fill="#808080"
       id="path9"
       style="fill:#eeeeec" />
  </g>
</svg>
