<?xml version="1.0" encoding="UTF-8" standalone="no"?>
<!-- Generator: Gravit.io -->

<svg
   xmlns:dc="http://purl.org/dc/elements/1.1/"
   xmlns:cc="http://creativecommons.org/ns#"
   xmlns:rdf="http://www.w3.org/1999/02/22-rdf-syntax-ns#"
   xmlns:svg="http://www.w3.org/2000/svg"
   xmlns="http://www.w3.org/2000/svg"
   xmlns:sodipodi="http://sodipodi.sourceforge.net/DTD/sodipodi-0.dtd"
   xmlns:inkscape="http://www.inkscape.org/namespaces/inkscape"
   style="isolation:isolate"
   viewBox="0 0 16 16"
   width="16"
   height="16"
   version="1.1"
   id="svg3"
   sodipodi:docname="nomacs-symbolic.svg"
   inkscape:version="0.92.3 (2405546, 2018-03-11)">
  <metadata
     id="metadata9">
    <rdf:RDF>
      <cc:Work
         rdf:about="">
        <dc:format>image/svg+xml</dc:format>
        <dc:type
           rdf:resource="http://purl.org/dc/dcmitype/StillImage" />
      </cc:Work>
    </rdf:RDF>
  </metadata>
  <defs
     id="defs7" />
  <sodipodi:namedview
     pagecolor="#ffffff"
     bordercolor="#666666"
     borderopacity="1"
     objecttolerance="10"
     gridtolerance="10"
     guidetolerance="10"
     inkscape:pageopacity="0"
     inkscape:pageshadow="2"
     inkscape:window-width="680"
     inkscape:window-height="480"
     id="namedview5"
     showgrid="false"
     inkscape:zoom="14.75"
     inkscape:cx="8"
     inkscape:cy="8"
     inkscape:window-x="58"
     inkscape:window-y="26"
     inkscape:window-maximized="0"
     inkscape:current-layer="svg3" />
  <path
     d=" M 2.430099 0.000019 C 2.298426 -0.001423 2.179312 0.077944 2.12994 0.200019 C 1.777358 1.098335 1.597569 2.055148 1.60002 3.020176 C 1.60002 6.919691 4.471376 10.089607 8.000012 10.089607 C 11.528648 10.089607 14.400005 6.918411 14.400005 3.019856 C 14.400005 2.044817 14.222405 1.094738 13.870086 0.199699 C 13.820394 0.077927 13.70144 -0.001206 13.569925 0.000019 L 2.430099 0.000019 Z  M 2.649939 0.640019 L 13.350406 0.640019 C 13.682394 1.568677 13.815193 2.556817 13.740165 3.540175 L 2.260179 3.540175 C 2.185152 2.556817 2.31795 1.568677 2.649939 0.640019 L 2.649939 0.640019 Z  M 6.990094 10.649926 C 7.019854 10.737606 7.040014 10.831366 7.040014 10.929926 L 7.040014 13.320003 C 7.040014 13.742403 5.906255 14.222402 5.230096 14.510082 C 4.436497 14.848642 3.917457 15.074881 3.859857 15.470081 C 3.846418 15.56992 3.852497 15.76 4.060177 15.92992 C 4.117777 15.9776 4.186257 16 4.259857 16 L 11.740168 16 C 11.812749 15.999961 11.883162 15.975249 11.939848 15.92992 C 12.148807 15.763521 12.153607 15.568641 12.140167 15.470081 C 12.087367 15.078721 11.597448 14.870082 10.780169 14.520002 C 10.09985 14.228802 8.960011 13.744962 8.960011 13.320003 L 8.960011 10.929926 C 8.960011 10.831366 8.980171 10.736326 9.009931 10.649926 C 8.675851 10.702536 8.338209 10.729281 8.000012 10.729926 C 7.657613 10.729926 7.320013 10.701127 6.990094 10.649926 Z "
     id="Compound Path"
     fill="rgb(135,135,135)"
     style="fill:#eeeeec" />
</svg>
