<?xml version="1.0" encoding="UTF-8" standalone="no"?>
<!-- Generator: Gravit.io -->

<svg
   xmlns:dc="http://purl.org/dc/elements/1.1/"
   xmlns:cc="http://creativecommons.org/ns#"
   xmlns:rdf="http://www.w3.org/1999/02/22-rdf-syntax-ns#"
   xmlns:svg="http://www.w3.org/2000/svg"
   xmlns="http://www.w3.org/2000/svg"
   xmlns:sodipodi="http://sodipodi.sourceforge.net/DTD/sodipodi-0.dtd"
   xmlns:inkscape="http://www.inkscape.org/namespaces/inkscape"
   style="isolation:isolate"
   viewBox="0 0 16 16"
   width="16"
   height="16"
   version="1.1"
   id="svg13"
   sodipodi:docname="synthesia-symbolic.svg"
   inkscape:version="0.92.3 (2405546, 2018-03-11)">
  <metadata
     id="metadata17">
    <rdf:RDF>
      <cc:Work
         rdf:about="">
        <dc:format>image/svg+xml</dc:format>
        <dc:type
           rdf:resource="http://purl.org/dc/dcmitype/StillImage" />
      </cc:Work>
    </rdf:RDF>
  </metadata>
  <sodipodi:namedview
     pagecolor="#ffffff"
     bordercolor="#666666"
     borderopacity="1"
     objecttolerance="10"
     gridtolerance="10"
     guidetolerance="10"
     inkscape:pageopacity="0"
     inkscape:pageshadow="2"
     inkscape:window-width="680"
     inkscape:window-height="480"
     id="namedview15"
     showgrid="false"
     inkscape:zoom="14.75"
     inkscape:cx="8"
     inkscape:cy="8"
     inkscape:window-x="58"
     inkscape:window-y="26"
     inkscape:window-maximized="0"
     inkscape:current-layer="svg13" />
  <defs
     id="defs5">
    <clipPath
       id="_clipPath_lQ9nWUpttqvOnObMQgTePQpJJJPgMPoB">
      <rect
         width="16"
         height="16"
         id="rect2" />
    </clipPath>
  </defs>
  <g
     clip-path="url(#_clipPath_lQ9nWUpttqvOnObMQgTePQpJJJPgMPoB)"
     id="g11"
     style="fill:#eeeeec">
    <rect
       x="18.188"
       y="-0.156"
       width="4.625"
       height="3.594"
       transform="matrix(1,0,0,1,0,0)"
       fill="#808080"
       id="rect7"
       style="fill:#eeeeec" />
    <path
       d=" M 2.834 2.077 C 2.347 2.074 1.878 2.266 1.534 2.611 C 1.189 2.955 0.997 3.424 1 3.911 L 1 12.089 C 0.997 12.576 1.189 13.045 1.534 13.389 C 1.878 13.734 2.347 13.926 2.834 13.923 L 13.166 13.923 C 13.653 13.926 14.122 13.734 14.466 13.389 C 14.811 13.045 15.003 12.576 15 12.089 L 15 3.911 C 15.003 3.424 14.811 2.955 14.466 2.611 C 14.122 2.266 13.653 2.074 13.166 2.077 L 2.834 2.077 Z  M 2.077 7.31 C 2.306 7.411 2.565 7.462 2.834 7.462 L 3.692 7.462 L 3.692 10.692 L 4.769 10.692 L 4.769 7.462 L 5.308 7.462 L 5.308 10.692 L 6.385 10.692 L 6.385 7.462 L 6.923 7.462 L 6.923 10.692 L 8 10.692 L 8 7.462 L 9.615 7.462 L 9.615 10.692 L 10.692 10.692 L 10.692 7.462 L 11.231 7.462 L 11.231 10.692 L 12.308 10.692 L 12.308 7.462 L 13.166 7.462 C 13.435 7.462 13.694 7.411 13.923 7.31 L 13.923 12.089 C 13.923 12.52 13.597 12.846 13.166 12.846 L 2.834 12.846 C 2.403 12.846 2.077 12.52 2.077 12.089 L 2.077 7.31 Z "
       fill="#808080"
       id="path9"
       style="fill:#eeeeec" />
  </g>
</svg>
