<?xml version="1.0" encoding="UTF-8" standalone="no"?>
<svg
   xmlns:dc="http://purl.org/dc/elements/1.1/"
   xmlns:cc="http://creativecommons.org/ns#"
   xmlns:rdf="http://www.w3.org/1999/02/22-rdf-syntax-ns#"
   xmlns:svg="http://www.w3.org/2000/svg"
   xmlns="http://www.w3.org/2000/svg"
   xmlns:sodipodi="http://sodipodi.sourceforge.net/DTD/sodipodi-0.dtd"
   xmlns:inkscape="http://www.inkscape.org/namespaces/inkscape"
   height="16"
   width="16"
   version="1.1"
   id="svg6"
   sodipodi:docname="view-list-video-symbolic.svg"
   inkscape:version="0.92.3 (2405546, 2018-03-11)">
  <metadata
     id="metadata12">
    <rdf:RDF>
      <cc:Work
         rdf:about="">
        <dc:format>image/svg+xml</dc:format>
        <dc:type
           rdf:resource="http://purl.org/dc/dcmitype/StillImage" />
      </cc:Work>
    </rdf:RDF>
  </metadata>
  <defs
     id="defs10" />
  <sodipodi:namedview
     pagecolor="#ffffff"
     bordercolor="#666666"
     borderopacity="1"
     objecttolerance="10"
     gridtolerance="10"
     guidetolerance="10"
     inkscape:pageopacity="0"
     inkscape:pageshadow="2"
     inkscape:window-width="680"
     inkscape:window-height="480"
     id="namedview8"
     showgrid="false"
     inkscape:zoom="14.75"
     inkscape:cx="8"
     inkscape:cy="8"
     inkscape:window-x="58"
     inkscape:window-y="26"
     inkscape:window-maximized="0"
     inkscape:current-layer="svg6" />
  <g
     transform="translate(-532.40678,-32.271186)"
     id="g4"
     style="color:#000000;fill:#eeeeec">
    <path
       d="m 533,34 v 13 h 1 v -1 h 1 v 1 h 11 v -1 h 1 v 1 h 1 V 34 h -1 v 1 h -1 v -1 h -11 v 1 h -1 v -1 z m 3,1 h 9 v 5 h -9 z m -2,1 h 1 v 1 h -1 z m 12,0 h 1 v 1 h -1 z m -12,2 h 1 v 1 h -1 z m 12,0 h 1 v 1 h -1 z m -12,2 h 1 v 1 h -1 z m 12,0 h 1 v 1 h -1 z m -10,1 h 9 v 5 h -9 z m -2,1 h 1 v 1 h -1 z m 12,0 h 1 v 1 h -1 z m -12,2 h 1 v 1 h -1 z m 12,0 h 1 v 1 h -1 z"
       overflow="visible"
       style="overflow:visible;fill:#eeeeec;marker:none"
       id="path2"
       inkscape:connector-curvature="0" />
  </g>
</svg>
