<?xml version="1.0" encoding="UTF-8" standalone="no"?>
<svg
   xmlns:osb="http://www.openswatchbook.org/uri/2009/osb"
   xmlns:dc="http://purl.org/dc/elements/1.1/"
   xmlns:cc="http://creativecommons.org/ns#"
   xmlns:rdf="http://www.w3.org/1999/02/22-rdf-syntax-ns#"
   xmlns:svg="http://www.w3.org/2000/svg"
   xmlns="http://www.w3.org/2000/svg"
   xmlns:sodipodi="http://sodipodi.sourceforge.net/DTD/sodipodi-0.dtd"
   xmlns:inkscape="http://www.inkscape.org/namespaces/inkscape"
   height="16.000032"
   id="svg7384"
   version="1.1"
   width="16.000044"
   sodipodi:docname="weather.svg"
   inkscape:version="0.92.3 (2405546, 2018-03-11)">
  <sodipodi:namedview
     pagecolor="#ffffff"
     bordercolor="#666666"
     borderopacity="1"
     objecttolerance="10"
     gridtolerance="10"
     guidetolerance="10"
     inkscape:pageopacity="0"
     inkscape:pageshadow="2"
     inkscape:window-width="680"
     inkscape:window-height="480"
     id="namedview21"
     showgrid="false"
     inkscape:zoom="14.74997"
     inkscape:cx="8.0000219"
     inkscape:cy="8.0000162"
     inkscape:window-x="58"
     inkscape:window-y="26"
     inkscape:window-maximized="0"
     inkscape:current-layer="svg7384" />
  <metadata
     id="metadata20854">
    <rdf:RDF>
      <cc:Work
         rdf:about="">
        <dc:title />
        <dc:format>image/svg+xml</dc:format>
        <dc:type
           rdf:resource="http://purl.org/dc/dcmitype/StillImage" />
      </cc:Work>
    </rdf:RDF>
  </metadata>
  <defs
     id="defs7386">
    <linearGradient
       id="linearGradient5606"
       osb:paint="solid">
      <stop
         id="stop5608"
         offset="0"
         style="stop-color:#808080;stop-opacity:1;" />
    </linearGradient>
    <linearGradient
       id="linearGradient4526"
       osb:paint="solid">
      <stop
         id="stop4528"
         offset="0"
         style="stop-color:#808080;stop-opacity:1;" />
    </linearGradient>
    <linearGradient
       id="linearGradient3600-4"
       osb:paint="gradient">
      <stop
         id="stop3602-7"
         offset="0"
         style="stop-color:#f4f4f4;stop-opacity:1" />
      <stop
         id="stop3604-6"
         offset="1"
         style="stop-color:#dbdbdb;stop-opacity:1" />
    </linearGradient>
  </defs>
  <g
     id="layer9"
     label="status"
     style="display:inline;fill:#eeeeec"
     transform="translate(-1133.0002,-73)">
    <path
       d="m 1140.5002,73 v 2 h 1 v -2 z m -3.0664,0.82227 -0.8672,0.5 1.002,1.73242 0.8652,-0.5 z m 7.1328,0 -1,1.73242 0.8672,0.5 1,-1.73242 z M 1141.0002,76 c -2.7614,0 -5,2.23858 -5,5 0,2.76142 2.2386,5 5,5 2.7614,0 5,-2.23858 5,-5 0,-2.76142 -2.2386,-5 -5,-5 z m -6.6777,0.56641 -0.5,0.86718 1.7324,1 0.5,-0.86718 z m 13.3554,0 -1.7324,1 0.5,0.86718 1.7324,-1 z M 1141.0002,77 a 4,4 0 0 1 4,4 4,4 0 0 1 -4,4 4,4 0 0 1 -4,-4 4,4 0 0 1 4,-4 z m -8,3.5 v 1 h 2 v -1 z m 14,0 v 1 h 2 v -1 z m -11.4453,3.06641 -1.7324,1 0.5,0.86718 1.7324,-1.00195 z m 10.8906,0 -0.5,0.86718 1.7324,1 0.5,-0.86718 z m -8.8789,2.3789 -1,1.73242 0.8672,0.5 1,-1.73242 z m 6.8672,0 -0.8672,0.5 1,1.73242 0.8672,-0.5 z M 1140.5002,87 v 2 h 1 v -2 z"
       id="path7872"
       style="opacity:1;fill:#eeeeec;fill-opacity:1;stroke:none;stroke-width:0.5;stroke-linecap:square;stroke-linejoin:round;stroke-miterlimit:4;stroke-dasharray:none;stroke-dashoffset:0;stroke-opacity:1" />
  </g>
  <g
     id="layer2"
     transform="translate(-892,-440)"
     style="fill:#eeeeec" />
  <g
     id="layer4"
     transform="translate(-892,-440)"
     style="fill:#eeeeec" />
  <g
     id="g1812"
     style="display:inline;fill:#eeeeec"
     transform="translate(-892,-440)" />
  <g
     id="g6217"
     transform="translate(-892,-440)"
     style="fill:#eeeeec" />
  <g
     id="layer3"
     style="display:inline;fill:#eeeeec"
     transform="translate(-892,-440)" />
  <g
     id="g1833"
     style="display:inline;fill:#eeeeec"
     transform="translate(-892,-440)" />
  <g
     id="layer1"
     transform="translate(-892,-440)"
     style="fill:#eeeeec" />
</svg>
