<?xml version="1.0" encoding="UTF-8" standalone="no"?>
<!-- Generator: Gravit.io -->

<svg
   xmlns:dc="http://purl.org/dc/elements/1.1/"
   xmlns:cc="http://creativecommons.org/ns#"
   xmlns:rdf="http://www.w3.org/1999/02/22-rdf-syntax-ns#"
   xmlns:svg="http://www.w3.org/2000/svg"
   xmlns="http://www.w3.org/2000/svg"
   xmlns:sodipodi="http://sodipodi.sourceforge.net/DTD/sodipodi-0.dtd"
   xmlns:inkscape="http://www.inkscape.org/namespaces/inkscape"
   style="isolation:isolate"
   viewBox="0 0 16 16"
   width="16"
   height="16"
   version="1.1"
   id="svg3"
   sodipodi:docname="airmirror-symbolic.svg"
   inkscape:version="0.92.3 (2405546, 2018-03-11)">
  <metadata
     id="metadata9">
    <rdf:RDF>
      <cc:Work
         rdf:about="">
        <dc:format>image/svg+xml</dc:format>
        <dc:type
           rdf:resource="http://purl.org/dc/dcmitype/StillImage" />
      </cc:Work>
    </rdf:RDF>
  </metadata>
  <defs
     id="defs7" />
  <sodipodi:namedview
     pagecolor="#ffffff"
     bordercolor="#666666"
     borderopacity="1"
     objecttolerance="10"
     gridtolerance="10"
     guidetolerance="10"
     inkscape:pageopacity="0"
     inkscape:pageshadow="2"
     inkscape:window-width="680"
     inkscape:window-height="480"
     id="namedview5"
     showgrid="false"
     inkscape:zoom="14.75"
     inkscape:cx="8"
     inkscape:cy="8"
     inkscape:window-x="58"
     inkscape:window-y="26"
     inkscape:window-maximized="0"
     inkscape:current-layer="svg3" />
  <path
     d=" M 5.333331 0.66667 C 4.466665 0.66667 3.734665 1.22667 3.457998 2.000003 L 2.708666 2.000003 L 0.23 9.999999 C 0.077668 10.428025 -0.000126 10.879007 0 11.333332 C 0 13.53333 1.799999 15.33333 3.999998 15.33333 C 5.465026 15.330568 6.813117 14.532844 7.520663 13.249997 C 7.66933 13.307331 7.830663 13.333331 7.999996 13.333331 C 8.169329 13.333331 8.330663 13.306664 8.479329 13.249997 C 9.186876 14.532844 10.534966 15.330568 11.999994 15.33333 C 14.199993 15.33333 15.999992 13.53333 15.999992 11.333332 C 16.001367 10.6302 15.814204 9.939558 15.457993 9.333333 L 13.291327 2.000003 L 12.541328 2.000003 C 12.261151 1.203935 11.510587 0.670106 10.666662 0.66667 C 9.799995 0.66667 9.067996 1.22667 8.791329 2.000003 L 7.208663 2.000003 C 6.928405 1.203706 6.177501 0.669825 5.333331 0.66667 Z  M 3.999998 8.666666 C 5.481997 8.666666 6.666664 9.851333 6.666664 11.333332 C 6.666664 12.815331 5.481997 13.999997 3.999998 13.999997 C 2.517999 13.999997 1.333333 12.815331 1.333333 11.333332 C 1.333333 9.851333 2.517999 8.666666 3.999998 8.666666 Z  M 11.999994 8.666666 C 13.481993 8.666666 14.66666 9.851333 14.66666 11.333332 C 14.66666 12.815331 13.481993 13.999997 11.999994 13.999997 C 10.517995 13.999997 9.333329 12.815331 9.333329 11.333332 C 9.333329 9.851333 10.517995 8.666666 11.999994 8.666666 Z "
     id="Compound Path"
     fill="rgb(135,135,135)"
     style="fill:#eeeeec" />
</svg>
