<?xml version="1.0" encoding="UTF-8" standalone="no"?>
<!-- Generator: Gravit.io -->

<svg
   xmlns:dc="http://purl.org/dc/elements/1.1/"
   xmlns:cc="http://creativecommons.org/ns#"
   xmlns:rdf="http://www.w3.org/1999/02/22-rdf-syntax-ns#"
   xmlns:svg="http://www.w3.org/2000/svg"
   xmlns="http://www.w3.org/2000/svg"
   xmlns:sodipodi="http://sodipodi.sourceforge.net/DTD/sodipodi-0.dtd"
   xmlns:inkscape="http://www.inkscape.org/namespaces/inkscape"
   style="isolation:isolate"
   viewBox="0 0 16 16"
   width="16"
   height="16"
   version="1.1"
   id="svg13"
   sodipodi:docname="artemanufrij.webpin-symbolic.svg"
   inkscape:version="0.92.3 (2405546, 2018-03-11)">
  <metadata
     id="metadata17">
    <rdf:RDF>
      <cc:Work
         rdf:about="">
        <dc:format>image/svg+xml</dc:format>
        <dc:type
           rdf:resource="http://purl.org/dc/dcmitype/StillImage" />
      </cc:Work>
    </rdf:RDF>
  </metadata>
  <sodipodi:namedview
     pagecolor="#ffffff"
     bordercolor="#666666"
     borderopacity="1"
     objecttolerance="10"
     gridtolerance="10"
     guidetolerance="10"
     inkscape:pageopacity="0"
     inkscape:pageshadow="2"
     inkscape:window-width="680"
     inkscape:window-height="480"
     id="namedview15"
     showgrid="false"
     inkscape:zoom="14.75"
     inkscape:cx="8"
     inkscape:cy="8"
     inkscape:window-x="58"
     inkscape:window-y="26"
     inkscape:window-maximized="0"
     inkscape:current-layer="svg13" />
  <defs
     id="defs5">
    <clipPath
       id="_clipPath_UesY50oIB4L5FffKPESK5hfz2GcxmF9v">
      <rect
         width="16"
         height="16"
         id="rect2" />
    </clipPath>
  </defs>
  <g
     clip-path="url(#_clipPath_UesY50oIB4L5FffKPESK5hfz2GcxmF9v)"
     id="g11"
     style="fill:#eeeeec">
    <path
       d=" M 9.095 6.173 C 9.588 8.203 10.255 10.21 10.815 12.172 C 11.109 8.572 11.244 5.014 11.542 1.503 L 15 1.814 C 14.355 6.44 13.774 10.979 12.77 15.423 L 9.675 15.145 C 8.866 12.996 8.248 10.875 7.523 8.839 C 6.361 10.828 5.319 12.734 4.275 14.66 L 1.181 14.382 C 0.871 9.723 1.008 5.12 1.227 0.577 L 4.685 0.888 C 4.338 4.391 3.857 8.107 3.565 11.521 C 4.501 9.622 5.428 7.833 6.365 5.928 L 9.095 6.173 Z "
       fill="#808080"
       id="path7"
       style="fill:#eeeeec" />
    <rect
       x="17.094"
       y="-0.094"
       width="4.625"
       height="3.594"
       transform="matrix(1,0,0,1,0,0)"
       fill="#808080"
       id="rect9"
       style="fill:#eeeeec" />
  </g>
</svg>
