<?xml version="1.0" encoding="UTF-8" standalone="no"?>
<!-- Generator: Gravit.io -->

<svg
   xmlns:dc="http://purl.org/dc/elements/1.1/"
   xmlns:cc="http://creativecommons.org/ns#"
   xmlns:rdf="http://www.w3.org/1999/02/22-rdf-syntax-ns#"
   xmlns:svg="http://www.w3.org/2000/svg"
   xmlns="http://www.w3.org/2000/svg"
   xmlns:sodipodi="http://sodipodi.sourceforge.net/DTD/sodipodi-0.dtd"
   xmlns:inkscape="http://www.inkscape.org/namespaces/inkscape"
   style="isolation:isolate"
   viewBox="0 0 16 16"
   width="16"
   height="16"
   version="1.1"
   id="svg18"
   sodipodi:docname="awn-symbolic.svg"
   inkscape:version="0.92.3 (2405546, 2018-03-11)">
  <metadata
     id="metadata22">
    <rdf:RDF>
      <cc:Work
         rdf:about="">
        <dc:format>image/svg+xml</dc:format>
        <dc:type
           rdf:resource="http://purl.org/dc/dcmitype/StillImage" />
      </cc:Work>
    </rdf:RDF>
  </metadata>
  <sodipodi:namedview
     pagecolor="#ffffff"
     bordercolor="#666666"
     borderopacity="1"
     objecttolerance="10"
     gridtolerance="10"
     guidetolerance="10"
     inkscape:pageopacity="0"
     inkscape:pageshadow="2"
     inkscape:window-width="680"
     inkscape:window-height="480"
     id="namedview20"
     showgrid="false"
     inkscape:zoom="14.75"
     inkscape:cx="8"
     inkscape:cy="8"
     inkscape:window-x="58"
     inkscape:window-y="26"
     inkscape:window-maximized="0"
     inkscape:current-layer="svg18" />
  <defs
     id="defs5">
    <clipPath
       id="_clipPath_MUx8C6oXelCtPPQ1qsSDrSEqWMrSbBHz">
      <rect
         width="16"
         height="16"
         id="rect2" />
    </clipPath>
  </defs>
  <g
     clip-path="url(#_clipPath_MUx8C6oXelCtPPQ1qsSDrSEqWMrSbBHz)"
     id="g16"
     style="fill:#eeeeec">
    <rect
       x="17.094"
       y="-0.094"
       width="4.625"
       height="3.594"
       transform="matrix(1,0,0,1,0,0)"
       fill="#808080"
       id="rect7"
       style="fill:#eeeeec" />
    <g
       id="awn"
       style="fill:#eeeeec">
      <path
         d=" M 2.321 7.538 L 2.496 7.538 L 2.489 9.518 L 7.681 9.511 L 7.674 7.538 L 8.048 7.544 L 8.035 9.504 L 13.165 9.511 L 13.152 7.538 L 13.38 7.542 C 13.645 7.547 13.934 7.752 14.026 8 L 14.972 10.545 C 15.064 10.793 14.924 10.994 14.659 10.995 L 1.369 11.007 C 1.104 11.008 0.947 10.801 1.017 10.546 L 1.716 7.999 C 1.786 7.745 2.057 7.538 2.321 7.538 Z "
         fill="#808080"
         id="path9"
         style="fill:#eeeeec" />
      <path
         d="M 3.207 4.993 L 6.878 4.993 C 7.203 4.993 7.467 5.257 7.467 5.582 L 7.467 8.663 C 7.467 8.988 7.203 9.252 6.878 9.252 L 3.207 9.252 C 2.882 9.252 2.618 8.988 2.618 8.663 L 2.618 5.582 C 2.618 5.257 2.882 4.993 3.207 4.993 Z"
         style="stroke:none;fill:#eeeeec;stroke-miterlimit:10"
         id="path11" />
      <path
         d="M 8.81 4.993 L 12.481 4.993 C 12.806 4.993 13.07 5.257 13.07 5.582 L 13.07 8.663 C 13.07 8.988 12.806 9.252 12.481 9.252 L 8.81 9.252 C 8.485 9.252 8.221 8.988 8.221 8.663 L 8.221 5.582 C 8.221 5.257 8.485 4.993 8.81 4.993 Z"
         style="stroke:none;fill:#eeeeec;stroke-miterlimit:10"
         id="path13" />
    </g>
  </g>
</svg>
