<?xml version="1.0" encoding="UTF-8" standalone="no"?>
<!-- Generator: Gravit.io -->

<svg
   xmlns:dc="http://purl.org/dc/elements/1.1/"
   xmlns:cc="http://creativecommons.org/ns#"
   xmlns:rdf="http://www.w3.org/1999/02/22-rdf-syntax-ns#"
   xmlns:svg="http://www.w3.org/2000/svg"
   xmlns="http://www.w3.org/2000/svg"
   xmlns:sodipodi="http://sodipodi.sourceforge.net/DTD/sodipodi-0.dtd"
   xmlns:inkscape="http://www.inkscape.org/namespaces/inkscape"
   style="isolation:isolate"
   viewBox="0 0 16 16"
   width="16"
   height="16"
   version="1.1"
   id="svg18"
   sodipodi:docname="krusader_user-symbolic.svg"
   inkscape:version="0.92.3 (2405546, 2018-03-11)">
  <metadata
     id="metadata22">
    <rdf:RDF>
      <cc:Work
         rdf:about="">
        <dc:format>image/svg+xml</dc:format>
        <dc:type
           rdf:resource="http://purl.org/dc/dcmitype/StillImage" />
      </cc:Work>
    </rdf:RDF>
  </metadata>
  <sodipodi:namedview
     pagecolor="#ffffff"
     bordercolor="#666666"
     borderopacity="1"
     objecttolerance="10"
     gridtolerance="10"
     guidetolerance="10"
     inkscape:pageopacity="0"
     inkscape:pageshadow="2"
     inkscape:window-width="680"
     inkscape:window-height="480"
     id="namedview20"
     showgrid="false"
     inkscape:zoom="14.75"
     inkscape:cx="8"
     inkscape:cy="8"
     inkscape:window-x="58"
     inkscape:window-y="26"
     inkscape:window-maximized="0"
     inkscape:current-layer="svg18" />
  <defs
     id="defs13">
    <filter
       id="WHIVSuGzqh73DndhwYas66I13e2KBief"
       x="-200%"
       y="-200%"
       width="400%"
       height="400%"
       filterUnits="objectBoundingBox"
       color-interpolation-filters="sRGB">
      <feGaussianBlur
         in="SourceGraphic"
         stdDeviation="4.293609062839028"
         id="feGaussianBlur2" />
      <feOffset
         dx="0"
         dy="4"
         result="pf_100_offsetBlur"
         id="feOffset4" />
      <feFlood
         flood-color="#000000"
         flood-opacity="0.4"
         id="feFlood6" />
      <feComposite
         in2="pf_100_offsetBlur"
         operator="in"
         result="pf_100_dropShadow"
         id="feComposite8" />
      <feBlend
         in="SourceGraphic"
         in2="pf_100_dropShadow"
         mode="normal"
         id="feBlend10" />
    </filter>
  </defs>
  <g
     filter="url(#WHIVSuGzqh73DndhwYas66I13e2KBief)"
     id="g16"
     style="fill:#eeeeec">
    <path
       d=" M 8.98627 15.890374 C 8.930904 15.890374 8.876643 15.890374 8.763695 15.836115 C 8.653513 15.779639 8.543333 15.669458 8.433153 15.559279 L 6.384014 10.796595 L 3.892492 13.122016 C 3.836571 13.231642 3.72639 13.288117 3.559736 13.288117 C 3.50326 13.288117 3.393634 13.288117 3.339374 13.231642 C 3.172719 13.177936 3.006064 12.954806 3.006064 12.734446 L 3.006064 0.553672 C 3.006064 0.33331 3.116798 0.110734 3.339374 0.056475 C 3.393634 0 3.503815 0 3.560289 0 C 3.671024 0 3.837125 0.056475 3.94786 0.166102 L 12.806604 8.471174 C 12.972705 8.638383 13.029181 8.858745 12.972705 9.079107 C 12.91623 9.302236 12.69587 9.412416 12.475509 9.468891 L 8.986824 9.799433 L 11.145035 14.505642 C 11.201511 14.616374 11.201511 14.782478 11.145035 14.949132 C 11.091329 15.059867 10.978934 15.225968 10.8682 15.282443 L 9.26366 16 C 9.152925 15.889821 9.04053 15.889821 8.986824 15.889821 L 8.98627 15.890374 Z "
       id="cursor"
       fill="rgb(135,135,135)"
       style="fill:#eeeeec" />
  </g>
</svg>
