<?xml version="1.0" encoding="UTF-8" standalone="no"?>
<!-- Generator: Gravit.io -->

<svg
   xmlns:dc="http://purl.org/dc/elements/1.1/"
   xmlns:cc="http://creativecommons.org/ns#"
   xmlns:rdf="http://www.w3.org/1999/02/22-rdf-syntax-ns#"
   xmlns:svg="http://www.w3.org/2000/svg"
   xmlns="http://www.w3.org/2000/svg"
   xmlns:sodipodi="http://sodipodi.sourceforge.net/DTD/sodipodi-0.dtd"
   xmlns:inkscape="http://www.inkscape.org/namespaces/inkscape"
   style="isolation:isolate"
   viewBox="0 0 16 16"
   width="16"
   height="16"
   version="1.1"
   id="svg13"
   sodipodi:docname="org.kde.kstars-symbolic.svg"
   inkscape:version="0.92.3 (2405546, 2018-03-11)">
  <metadata
     id="metadata17">
    <rdf:RDF>
      <cc:Work
         rdf:about="">
        <dc:format>image/svg+xml</dc:format>
        <dc:type
           rdf:resource="http://purl.org/dc/dcmitype/StillImage" />
      </cc:Work>
    </rdf:RDF>
  </metadata>
  <sodipodi:namedview
     pagecolor="#ffffff"
     bordercolor="#666666"
     borderopacity="1"
     objecttolerance="10"
     gridtolerance="10"
     guidetolerance="10"
     inkscape:pageopacity="0"
     inkscape:pageshadow="2"
     inkscape:window-width="680"
     inkscape:window-height="480"
     id="namedview15"
     showgrid="false"
     inkscape:zoom="14.75"
     inkscape:cx="8"
     inkscape:cy="8"
     inkscape:window-x="58"
     inkscape:window-y="26"
     inkscape:window-maximized="0"
     inkscape:current-layer="svg13" />
  <defs
     id="defs5">
    <clipPath
       id="_clipPath_sPmFytiur5zS13Xsjwp4XU4lM8Iu1O9M">
      <rect
         width="16"
         height="16"
         id="rect2" />
    </clipPath>
  </defs>
  <g
     clip-path="url(#_clipPath_sPmFytiur5zS13Xsjwp4XU4lM8Iu1O9M)"
     id="g11"
     style="fill:#eeeeec">
    <rect
       x="17.094"
       y="-0.094"
       width="4.625"
       height="3.594"
       transform="matrix(1,0,0,1,0,0)"
       fill="#808080"
       id="rect7"
       style="fill:#eeeeec" />
    <path
       d=" M 11.274 0 L 6.95 2.95 L 10.225 8.4 L 14.874 6 L 11.274 0 Z  M 6.625 4.15 L 3.825 6.15 L 5.899 9.675 L 9.025 8.075 L 6.625 4.15 Z  M 3.374 7.2 L 1.126 8.55 L 2.55 10.95 L 4.825 9.6 L 3.374 7.2 Z  M 8.15 10 L 6.55 10.95 L 6.55 11.2 L 4.15 15.2 L 5.75 15.2 L 6.55 13.85 L 6.55 16 L 8.15 16 L 8.15 13.85 L 8.95 15.2 L 10.55 15.2 L 8.15 11.2 L 8.15 10 Z "
       fill="#808080"
       id="path9"
       style="fill:#eeeeec" />
  </g>
</svg>
