<?xml version="1.0" encoding="UTF-8" standalone="no"?>
<svg
   xmlns:dc="http://purl.org/dc/elements/1.1/"
   xmlns:cc="http://creativecommons.org/ns#"
   xmlns:rdf="http://www.w3.org/1999/02/22-rdf-syntax-ns#"
   xmlns:svg="http://www.w3.org/2000/svg"
   xmlns="http://www.w3.org/2000/svg"
   xmlns:sodipodi="http://sodipodi.sourceforge.net/DTD/sodipodi-0.dtd"
   xmlns:inkscape="http://www.inkscape.org/namespaces/inkscape"
   height="16"
   width="16"
   version="1.1"
   id="svg6"
   sodipodi:docname="preferences-desktop-emoticons-symbolic.svg"
   inkscape:version="0.92.3 (2405546, 2018-03-11)">
  <metadata
     id="metadata12">
    <rdf:RDF>
      <cc:Work
         rdf:about="">
        <dc:format>image/svg+xml</dc:format>
        <dc:type
           rdf:resource="http://purl.org/dc/dcmitype/StillImage" />
      </cc:Work>
    </rdf:RDF>
  </metadata>
  <defs
     id="defs10" />
  <sodipodi:namedview
     pagecolor="#ffffff"
     bordercolor="#666666"
     borderopacity="1"
     objecttolerance="10"
     gridtolerance="10"
     guidetolerance="10"
     inkscape:pageopacity="0"
     inkscape:pageshadow="2"
     inkscape:window-width="680"
     inkscape:window-height="480"
     id="namedview8"
     showgrid="false"
     inkscape:zoom="14.75"
     inkscape:cx="8"
     inkscape:cy="8"
     inkscape:window-x="58"
     inkscape:window-y="26"
     inkscape:window-maximized="0"
     inkscape:current-layer="svg6" />
  <g
     color="#808080"
     transform="translate(-1128 -94)"
     id="g4"
     style="fill:#eeeeec">
    <path
       d="M1136 94c-4.412 0-8 3.588-8 8s3.588 8 8 8 8-3.588 8-8-3.588-8-8-8zm0 1c3.872 0 7 3.128 7 7s-3.128 7-7 7-7-3.128-7-7 3.128-7 7-7zm-2.022 3.496c-.406.031-.729.919-.728 2.002 0 2.67 1.5 2.67 1.5 0 0-1.128-.349-2.034-.771-2.002zm4 0c-.406.031-.729.919-.728 2.002 0 2.67 1.5 2.67 1.5 0 0-1.128-.349-2.034-.771-2.002zm-4.804 5.334l-.707.707a4.999 4.999 0 0 0 3.533 1.467 4.999 4.999 0 0 0 3.533-1.467l-.707-.707a4 4 0 0 1-2.826 1.174 4 4 0 0 1-2.826-1.174z"
       fill="#808080"
       overflow="visible"
       style="marker:none;fill:#eeeeec"
       id="path2" />
  </g>
</svg>
